<svg xmlns="http://www.w3.org/2000/svg" version="1.1" xmlns:xlink="http://www.w3.org/1999/xlink" xmlns:svgjs="http://svgjs.dev/svgjs" width="36" height="20"><svg width="36" height="20" viewBox="0 0 36 20" fill="none" xmlns="http://www.w3.org/2000/svg">
    <path fill-rule="evenodd" clip-rule="evenodd" d="M21.3627 12.2726C21.6314 13.7405 20.8961 14.9687 20.3021 16.1519C19.6233 17.2603 18.5202 18.2039 17.1909 18.0691C14.1927 18.0242 11.2654 17.5299 8.55009 16.6612C8.42281 16.6312 8.30968 16.5414 8.23897 16.4215C8.1824 16.2568 8.26725 16.107 8.38039 15.9872C10.8552 13.8603 13.8109 12.8717 16.7242 11.8382C17.8131 11.5087 18.9727 11.1492 20.189 11.314C20.6839 11.4039 21.1789 11.7783 21.3627 12.2726ZM31.5733 5.98178C32.9592 7.19501 34.2178 8.8426 33.7936 10.8347C33.1006 13.7854 30.0742 15.3431 27.6559 16.3467C26.3407 16.811 25.0255 17.2903 23.583 17.4251C23.4982 17.4101 23.3426 17.4401 23.3285 17.2903L23.3568 17.1255C25.3932 14.6841 26.9488 11.9581 28.3065 9.1871C28.9287 7.94392 29.5227 6.6558 30.0601 5.39763C30.1449 5.30776 30.2156 5.24785 30.3005 5.2179C30.8096 5.27781 31.1773 5.6972 31.5733 5.98178ZM12.0149 2.85135L11.9725 3.03109C9.01678 6.58091 7.07932 10.6999 5.24086 14.8039C4.88731 15.1634 4.53376 14.6841 4.2085 14.5343C2.56802 13.396 1.09726 11.5536 1.52152 9.36684C2.20033 6.52099 4.97216 4.99322 7.29145 3.95973C8.66323 3.42052 10.0774 2.97117 11.5906 2.73152C11.732 2.71655 11.93 2.68659 12.0149 2.85135ZM26.6377 3.42052C26.8074 3.51039 27.0054 3.55532 27.1044 3.73506C27.1893 3.92978 27.0195 4.06458 26.9206 4.19938C24.6013 6.11658 21.9426 7.18003 19.2273 8.12365C17.8414 8.48313 16.4555 9.12719 14.9281 8.76771C14.5746 8.67784 14.2493 8.42322 14.0372 8.04876C13.6554 6.9254 14.1786 5.77209 14.617 4.79851C15.211 3.5703 16.2716 2.1324 17.7283 2.11742C20.8678 2.08746 23.8235 2.58174 26.6377 3.42052ZM30.5268 3.51039C32.9026 4.88838 35.5896 7.31483 35.3209 10.5351C34.9956 13.5308 32.3652 15.6127 30.0035 16.8709C23.1305 20.3458 13.4715 20.4507 6.37222 17.4101C3.96808 16.3467 1.2811 14.5343 0.277019 11.8083C-0.500791 9.56155 0.446723 7.22497 2.03063 5.66724C5.32571 2.50685 9.54003 1.41345 13.8816 0.784367C18.5909 0.185241 23.5406 0.709476 27.7691 2.25222C28.7024 2.6117 29.6358 3.01611 30.5268 3.51039Z" fill="#003984"></path>
</svg><style>@media (prefers-color-scheme: light) { :root { filter: none; } }
@media (prefers-color-scheme: dark) { :root { filter: none; } }
</style></svg>