<svg width="80" height="47" viewBox="0 0 80 47" fill="none" xmlns="http://www.w3.org/2000/svg">
  <path fill-rule="evenodd" clip-rule="evenodd" d="M48.36 28.7452C48.9683 32.3423 47.3035 35.3522 45.9589 38.2519C44.4223 40.9681 41.9252 43.2805 38.9159 42.9502C32.1289 42.84 25.502 41.6288 19.3553 39.4999C19.0672 39.4264 18.8111 39.2062 18.651 38.9126C18.5229 38.5088 18.715 38.1418 18.9711 37.8481C24.5736 32.636 31.2645 30.2134 37.8594 27.6808C40.3245 26.8732 42.9496 25.9923 45.7028 26.3961C46.8233 26.6163 47.9438 27.5339 48.36 28.7452ZM71.4741 13.329C74.6115 16.3021 77.4607 20.3397 76.5003 25.2215C74.9316 32.4524 68.0806 36.2698 62.6062 38.729C59.6289 39.8669 56.6516 41.0415 53.3862 41.3718C53.1941 41.3351 52.8419 41.4085 52.8099 41.0415L52.874 40.6377C57.484 34.6548 61.0055 27.9744 64.0789 21.1839C65.4875 18.1374 66.8321 14.9807 68.0486 11.8975C68.2407 11.6772 68.4007 11.5304 68.5928 11.457C69.7453 11.6038 70.5777 12.6316 71.4741 13.329ZM27.1987 5.65758L27.1027 6.09804C20.4118 14.7972 16.0258 24.8911 11.864 34.9484C11.0637 35.8293 10.2633 34.6548 9.527 34.2877C5.81337 31.4981 2.48392 26.9834 3.44434 21.6244C4.98101 14.6504 11.2558 10.9064 16.506 8.37377C19.6114 7.05238 22.8128 5.95122 26.2383 5.36394C26.5584 5.32723 27.0066 5.25382 27.1987 5.65758ZM60.3012 7.05238C60.6854 7.27261 61.1336 7.38273 61.3577 7.82319C61.5498 8.30036 61.1656 8.63071 60.9415 8.96106C55.6912 13.6593 49.6726 16.2654 43.5259 18.5778C40.3885 19.4588 37.2511 21.0371 33.7936 20.1562C32.9933 19.9359 32.2569 19.3119 31.7767 18.3943C30.9124 15.6414 32.0969 12.8151 33.0893 10.4293C34.4339 7.41943 36.8349 3.89573 40.1324 3.85902C47.2395 3.78561 53.9304 4.99689 60.3012 7.05238ZM69.1051 7.27261C74.4834 10.6495 80.5661 16.5958 79.9578 24.4874C79.2215 31.8284 73.2669 36.9305 67.9205 40.0137C52.3617 48.5294 30.4962 48.7863 14.4251 41.3351C8.98276 38.729 2.9001 34.2877 0.627103 27.6073C-1.13367 22.1015 1.01127 16.3755 4.59684 12.5582C12.0561 4.81336 21.5963 2.13387 31.4246 0.59225C42.0852 -0.875961 53.2901 0.408723 62.8623 4.18937C64.9753 5.0703 67.0882 6.06134 69.1051 7.27261Z" fill="white"/>
</svg>
