<?xml version="1.0" standalone="no"?>
<!DOCTYPE svg PUBLIC "-//W3C//DTD SVG 20010904//EN"
 "http://www.w3.org/TR/2001/REC-SVG-20010904/DTD/svg10.dtd">
<svg version="1.0" xmlns="http://www.w3.org/2000/svg"
 width="1024.000000pt" height="1024.000000pt" viewBox="0 0 1024.000000 1024.000000"
 preserveAspectRatio="xMidYMid meet">

<g transform="translate(0.000000,1024.000000) scale(0.100000,-0.100000)"
fill="#fff" stroke="none">
<path d="M5597 8448 c-8 -35 -25 -87 -37 -117 -18 -47 -19 -53 -4 -40 16 13
17 12 10 -13 -3 -16 -2 -28 3 -28 5 0 12 -20 15 -45 7 -43 20 -58 29 -32 2 6
2 3 0 -8 -6 -34 -11 -71 -6 -52 2 9 8 15 13 12 12 -7 -1 -41 -34 -89 -14 -21
-23 -43 -20 -48 4 -6 10 -5 15 3 6 9 7 1 3 -21 -9 -60 12 -13 41 90 40 143 48
189 41 260 -5 60 -34 171 -48 185 -3 3 -12 -22 -21 -57z m13 -25 c-11 -17 -11
-17 -6 0 3 10 7 26 7 35 1 15 2 15 6 0 2 -10 -1 -25 -7 -35z m27 -265 c-3 -7
-5 -2 -5 12 0 14 2 19 5 13 2 -7 2 -19 0 -25z"/>
<path d="M5722 7857 c-2 -113 -51 -213 -99 -204 -13 2 -26 0 -29 -4 -3 -5 2
-9 11 -9 15 0 15 -2 -1 -17 -16 -16 -16 -18 -1 -21 13 -3 16 -14 15 -55 0 -29
2 -74 6 -102 3 -27 1 -84 -4 -125 -6 -41 -13 -104 -16 -139 -4 -49 -10 -68
-27 -82 -12 -10 -17 -18 -12 -19 16 0 108 91 145 145 19 28 38 52 41 55 4 3
21 47 38 98 43 123 51 239 26 343 -19 76 -52 160 -77 193 -13 16 -14 10 -16
-57z m-85 -243 c-3 -3 -12 -4 -19 -1 -8 3 -5 6 6 6 11 1 17 -2 13 -5z"/>
<path d="M3905 7518 c-12 -34 -85 -343 -99 -418 -39 -224 -51 -434 -28 -516
12 -41 53 -92 191 -239 527 -562 867 -1042 1066 -1507 48 -111 40 -69 -14 74
-181 483 -465 917 -986 1505 -80 91 -151 177 -156 191 -33 86 2 415 81 747
l28 120 -31 27 c-36 31 -46 33 -52 16z"/>
<path d="M6277 7503 c-26 -18 -36 -32 -32 -42 4 -9 20 -71 36 -139 79 -333
107 -627 69 -727 -5 -12 -55 -73 -112 -136 -57 -63 -130 -145 -163 -184 -33
-38 -62 -72 -65 -75 -3 -3 -41 -50 -86 -105 -249 -309 -431 -583 -566 -850
-60 -120 -181 -411 -176 -426 2 -4 27 44 55 109 188 418 524 875 1098 1492 54
58 105 121 114 140 24 53 21 277 -7 455 -32 202 -105 515 -121 515 -3 0 -23
-12 -44 -27z"/>
<path d="M4622 7470 c0 -14 2 -19 5 -12 2 6 2 18 0 25 -3 6 -5 1 -5 -13z"/>
<path d="M4612 7390 c0 -14 2 -19 5 -12 2 6 2 18 0 25 -3 6 -5 1 -5 -13z"/>
<path d="M3653 7226 c-70 -167 -204 -480 -207 -483 -1 -2 -52 13 -112 32 -60
19 -112 35 -116 35 -3 0 -45 -78 -93 -172 -48 -95 -91 -177 -95 -183 -4 -5
-58 -109 -120 -230 -117 -227 -154 -298 -259 -496 -33 -64 -61 -120 -61 -126
0 -5 17 -15 38 -22 79 -28 422 -165 551 -221 723 -310 1349 -687 1697 -1022
l111 -108 131 0 131 0 78 79 c312 313 957 712 1623 1004 69 30 148 64 175 76
55 25 263 106 422 167 l102 39 -121 235 c-66 129 -142 276 -168 325 -64 121
-267 516 -301 587 -15 31 -32 58 -36 61 -4 2 -57 -10 -118 -28 -105 -30 -135
-31 -135 -4 0 8 -168 412 -200 481 l-13 27 -41 -21 c-22 -11 -42 -21 -43 -22
-1 -1 11 -36 28 -77 152 -370 319 -786 319 -796 0 -4 -19 -21 -43 -38 -99 -70
-402 -326 -561 -474 -533 -495 -919 -982 -1064 -1344 l-38 -94 -18 51 c-61
173 -205 419 -373 633 -289 371 -822 890 -1223 1192 -47 36 -87 66 -89 67 -4
3 41 122 85 224 52 121 264 643 264 649 0 4 -19 16 -43 28 l-43 21 -21 -52z"/>
<path d="M4688 6863 c-2 -4 -5 -24 -7 -44 -3 -41 11 -49 69 -38 19 3 27 7 18
8 -10 0 -18 5 -18 10 0 5 8 12 18 14 9 3 1 6 -18 7 l-35 2 30 8 c29 7 29 8
-10 10 l-40 3 40 7 c22 4 31 8 20 9 -11 1 -30 4 -41 7 -12 3 -24 2 -26 -3z"/>
<path d="M5385 6860 c-18 -8 -18 -9 5 -9 20 -1 22 -3 10 -11 -12 -8 -12 -10 5
-11 17 -1 16 -2 -5 -9 -17 -5 -19 -8 -7 -9 9 -1 17 -5 17 -10 0 -5 -8 -11 -17
-14 -26 -5 86 -19 127 -15 34 3 35 4 38 51 l3 47 -78 -1 c-43 0 -87 -4 -98 -9z"/>
<path d="M4762 6691 c38 -44 42 -47 25 -20 -10 18 -12 30 -6 36 7 7 2 11 -16
11 l-26 0 23 -27z"/>
<path d="M5380 6692 c0 -15 -5 -33 -12 -40 -9 -9 -9 -12 0 -12 7 0 9 -7 5 -17
-5 -12 -2 -15 10 -10 14 5 15 3 5 -13 -9 -14 -14 -16 -20 -7 -5 7 -7 2 -6 -13
3 -20 -3 -25 -27 -31 l-30 -7 30 -1 c20 -1 34 6 42 18 7 11 40 52 73 90 l61
71 -66 0 c-65 0 -65 0 -65 -28z"/>
<path d="M5313 6523 c9 -2 25 -2 35 0 9 3 1 5 -18 5 -19 0 -27 -2 -17 -5z"/>
<path d="M5287 6453 c9 -7 12 -48 3 -48 -1 0 -3 -10 -4 -22 -2 -13 2 -23 8
-23 6 0 4 -5 -4 -10 -11 -7 -6 -10 20 -10 53 0 62 10 58 66 l-3 49 -45 3 c-25
1 -40 -1 -33 -5z"/>
<path d="M4870 6423 c0 -21 3 -24 9 -13 6 8 8 17 5 21 -2 4 4 10 13 12 14 4
13 5 -4 6 -19 1 -23 -4 -23 -26z"/>
<path d="M4872 6373 c2 -9 10 -18 18 -20 13 -4 13 -3 0 6 -13 10 -13 12 0 21
13 8 12 10 -3 10 -12 0 -17 -6 -15 -17z"/>
<path d="M5255 6270 c-16 -4 -23 -8 -15 -9 13 -1 15 -34 13 -238 -2 -159 1
-230 7 -215 6 13 10 38 9 55 0 18 9 115 19 217 11 102 18 188 15 193 -5 8 -6
8 -48 -3z"/>
<path d="M4941 6248 c0 -16 2 -18 6 -8 3 8 11 18 17 22 7 5 4 8 -6 8 -12 0
-18 -7 -17 -22z"/>
<path d="M5247 5741 c-4 -17 -3 -21 5 -13 5 5 8 16 6 23 -3 8 -7 3 -11 -10z"/>
<path d="M2448 5192 c-1 -4 -65 -66 -141 -136 -104 -97 -137 -134 -135 -150 3
-23 5 -24 343 -111 99 -25 227 -60 285 -76 58 -16 170 -46 250 -68 285 -76
487 -131 650 -175 176 -48 659 -178 750 -202 285 -76 277 -73 305 -119 28 -48
92 -107 146 -135 122 -63 302 -64 423 -3 59 30 149 113 166 153 9 21 22 31 53
39 23 6 83 22 132 35 660 178 896 242 1180 320 267 74 1086 293 1160 310 49
12 57 24 38 55 -16 26 -267 263 -286 270 -6 2 -2 -12 10 -30 11 -19 29 -66 41
-104 12 -39 31 -81 43 -93 12 -13 17 -27 13 -32 -5 -4 -61 -22 -124 -38 -199
-53 -981 -263 -1210 -327 -129 -35 -292 -79 -625 -169 -154 -41 -326 -88 -383
-104 l-103 -28 -29 -51 c-58 -101 -144 -146 -285 -147 -77 -1 -98 3 -146 25
-62 29 -108 73 -142 134 -22 39 -25 40 -142 73 -117 31 -625 169 -735 198
-260 70 -606 163 -755 204 -381 105 -545 149 -680 185 -77 20 -146 38 -153 40
-10 4 -8 12 8 35 11 16 32 59 45 95 13 36 33 81 44 100 15 27 17 35 6 35 -7 0
-15 -4 -17 -8z"/>
<path d="M5220 5164 c0 -14 4 -23 9 -20 5 3 7 15 4 26 -7 28 -13 25 -13 -6z"/>
<path d="M3185 3586 c-173 -44 -285 -153 -321 -313 -48 -215 74 -424 278 -479
116 -30 269 -10 373 49 32 18 41 29 43 56 2 18 0 32 -5 30 -4 -2 -35 -17 -68
-34 -54 -27 -69 -30 -155 -30 -85 0 -100 3 -141 27 -94 55 -153 154 -172 284
-19 136 33 270 127 329 46 28 57 30 140 30 81 0 96 -3 138 -27 45 -27 70 -68
80 -133 2 -14 11 -20 28 -20 25 0 25 1 28 98 l3 97 -28 11 c-94 36 -257 48
-348 25z"/>
<path d="M6145 3594 c-246 -60 -374 -238 -344 -476 19 -152 121 -273 267 -318
165 -51 361 -8 467 104 175 183 140 501 -68 630 -72 45 -250 78 -322 60z m150
-69 c130 -53 211 -254 184 -455 -20 -147 -95 -231 -213 -238 -36 -2 -81 1
-102 8 -60 20 -126 90 -164 172 -31 66 -34 84 -38 183 -5 127 11 198 58 264
58 80 173 108 275 66z"/>
<path d="M1580 3560 c0 -14 7 -20 23 -20 13 0 32 -6 43 -14 18 -14 19 -31 22
-326 3 -344 2 -351 -57 -363 -22 -5 -31 -12 -31 -27 0 -19 6 -20 161 -20 l160
0 -3 23 c-2 16 -11 23 -30 25 -49 6 -58 32 -58 179 l0 133 28 0 c60 0 68 -9
153 -156 113 -196 108 -191 202 -204 43 -5 89 -10 103 -10 35 0 30 31 -8 55
-18 11 -53 46 -78 77 -61 76 -177 271 -163 275 6 2 31 17 57 33 83 53 118 167
76 249 -48 94 -106 111 -387 111 -206 0 -213 -1 -213 -20z m399 -58 c37 -27
61 -80 61 -135 0 -106 -52 -159 -162 -165 l-68 -4 0 160 c0 183 -5 174 89 167
32 -2 65 -12 80 -23z"/>
<path d="M2400 3560 c0 -14 7 -20 23 -20 13 0 32 -6 43 -14 18 -14 19 -29 19
-334 0 -336 -2 -352 -46 -352 -21 0 -51 -28 -44 -41 4 -5 78 -9 166 -9 151 0
159 1 159 20 0 14 -10 22 -39 30 -21 5 -42 17 -45 26 -3 9 -6 155 -6 325 0
296 1 310 20 329 11 11 31 20 45 20 18 0 25 5 25 20 0 19 -7 20 -160 20 -153
0 -160 -1 -160 -20z"/>
<path d="M3700 3561 c0 -12 9 -21 28 -24 60 -14 57 2 57 -345 0 -346 0 -344
-55 -356 -21 -4 -30 -11 -30 -26 0 -19 6 -20 160 -20 151 0 160 1 160 19 0 14
-10 21 -32 26 -57 13 -58 14 -58 181 l0 154 195 0 196 0 -3 -156 c-3 -169 -2
-166 -60 -179 -19 -4 -28 -12 -28 -25 0 -19 7 -20 165 -20 156 0 165 1 165 19
0 14 -10 21 -32 26 -60 13 -58 0 -58 350 0 299 1 323 18 338 10 10 31 17 45
17 20 0 27 5 27 20 0 20 -5 20 -162 18 -133 -2 -163 -6 -163 -17 0 -8 13 -18
28 -22 55 -15 57 -20 57 -170 l0 -139 -195 0 -195 0 0 135 c0 122 2 137 20
155 11 11 31 20 45 20 18 0 25 5 25 20 0 19 -7 20 -160 20 -150 0 -160 -1
-160 -19z"/>
<path d="M4700 3560 c0 -13 7 -20 20 -20 12 0 34 -7 50 -15 29 -15 30 -18 30
-88 -1 -97 -36 -563 -44 -576 -4 -6 -25 -15 -46 -21 -29 -8 -40 -16 -40 -30 0
-19 8 -20 130 -20 121 0 130 1 130 19 0 14 -11 22 -44 30 -29 7 -45 17 -49 30
-6 25 15 521 23 521 3 0 18 -28 32 -62 21 -48 179 -426 215 -515 3 -7 15 -13
27 -13 16 0 27 12 43 48 23 50 144 333 198 465 18 43 35 80 38 83 8 9 16 -96
23 -316 7 -234 8 -230 -48 -244 -19 -4 -28 -13 -28 -26 0 -19 7 -20 160 -20
147 0 160 1 160 18 0 12 -14 22 -42 32 l-43 15 -7 80 c-3 44 -12 190 -18 324
l-12 245 22 18 c12 10 33 18 46 18 17 0 24 6 24 20 0 19 -7 20 -113 20 l-113
0 -13 -37 c-8 -21 -38 -96 -69 -168 -30 -71 -72 -170 -92 -220 -48 -116 -62
-145 -69 -145 -3 0 -27 51 -53 113 -70 167 -179 430 -185 445 -4 9 -38 12
-124 12 -112 0 -119 -1 -119 -20z"/>
<path d="M6760 3560 c0 -14 7 -20 23 -20 33 0 86 -36 98 -68 7 -17 10 -127 7
-315 -3 -276 -4 -289 -23 -300 -11 -7 -31 -14 -45 -17 -16 -3 -26 -13 -28 -28
-3 -22 -3 -22 132 -22 127 0 136 1 136 19 0 20 -18 31 -51 31 -10 0 -28 9 -39
20 -19 19 -20 33 -20 278 l1 257 41 -45 c60 -66 257 -294 382 -442 83 -98 114
-128 132 -128 l24 0 0 133 c0 74 3 236 7 361 7 247 8 251 64 263 20 4 29 12
29 24 0 18 -10 19 -135 19 -128 0 -135 -1 -135 -20 0 -13 7 -20 19 -20 10 0
32 -5 49 -11 42 -14 43 -28 40 -288 l-3 -213 -145 167 c-80 92 -164 190 -188
218 -24 27 -66 76 -94 108 l-51 59 -114 0 c-106 0 -113 -1 -113 -20z"/>
<path d="M7770 3561 c0 -12 9 -21 28 -24 60 -14 57 2 57 -345 0 -346 0 -345
-56 -357 -20 -5 -29 -13 -29 -27 0 -20 4 -20 243 -15 181 3 254 8 288 20 162
54 263 167 290 324 27 161 -50 332 -176 393 -91 44 -137 50 -397 50 -236 0
-248 -1 -248 -19z m491 -58 c61 -27 116 -84 147 -152 23 -49 26 -70 27 -161 0
-120 -12 -168 -58 -236 -23 -35 -48 -57 -90 -78 -51 -26 -69 -30 -141 -30 -49
1 -94 7 -112 15 l-29 14 -3 315 c-2 291 -1 316 15 328 28 21 186 11 244 -15z"/>
<path d="M5975 2504 c-5 -1 -27 -5 -48 -9 -51 -8 -114 -65 -127 -116 -23 -84
17 -153 123 -215 93 -54 127 -90 127 -135 0 -57 -34 -90 -96 -96 -65 -6 -113
24 -134 85 -8 23 -21 42 -29 42 -11 0 -13 -13 -8 -67 4 -37 12 -70 19 -75 26
-16 120 -29 161 -23 188 32 237 219 84 319 -29 18 -69 43 -90 56 -60 35 -77
59 -77 105 0 121 169 127 195 7 11 -55 30 -32 30 38 0 59 -2 64 -25 70 -37 10
-94 18 -105 14z"/>
<path d="M1658 2428 c-15 -40 -49 -127 -76 -193 -123 -297 -120 -292 -155
-297 -12 -2 -23 -11 -25 -20 -3 -16 6 -18 92 -18 76 0 96 3 96 14 0 8 -13 17
-30 21 -37 8 -38 25 -7 117 l22 68 99 -2 99 -3 23 -60 c33 -86 32 -112 -7
-120 -16 -4 -28 -12 -26 -18 2 -6 48 -11 125 -11 103 -1 122 1 120 14 -2 8
-12 16 -23 18 -34 7 -43 20 -91 145 -26 67 -73 187 -105 266 -33 80 -59 146
-59 148 0 2 -10 3 -23 3 -18 0 -27 -12 -49 -72z m24 -266 c-41 -2 -77 -1 -79
2 -5 5 49 152 69 190 9 17 17 3 47 -85 l37 -104 -74 -3z"/>
<path d="M4182 2388 c-127 -19 -208 -103 -219 -227 -8 -84 11 -138 66 -191 54
-53 102 -70 193 -70 49 0 76 6 116 26 29 14 52 32 52 40 0 17 5 18 -58 -6 -63
-24 -100 -25 -150 -5 -82 35 -126 106 -127 205 0 125 61 200 164 200 80 0 131
-35 131 -89 0 -12 7 -21 15 -21 12 0 15 13 15 59 0 52 -3 61 -21 66 -45 15
-126 20 -177 13z"/>
<path d="M6440 2391 c-122 -28 -193 -99 -214 -214 -10 -54 10 -139 44 -185 65
-90 222 -122 330 -67 28 14 50 32 50 40 0 19 -4 19 -38 1 -52 -27 -116 -30
-163 -8 -81 36 -118 89 -126 181 -7 74 11 134 51 179 31 33 39 36 97 40 55 3
69 0 99 -20 20 -14 38 -36 44 -56 14 -48 31 -33 34 31 l3 56 -38 10 c-58 15
-134 21 -173 12z"/>
<path d="M7527 2389 c-127 -31 -197 -121 -197 -251 1 -153 102 -245 263 -237
123 7 198 67 233 186 21 74 11 140 -30 201 -55 79 -175 124 -269 101z m124
-52 c54 -36 82 -97 87 -189 8 -138 -44 -218 -141 -218 -61 0 -91 15 -122 60
-77 112 -63 307 25 356 40 21 112 17 151 -9z"/>
<path d="M8120 2387 c-63 -18 -113 -50 -143 -94 -38 -55 -47 -87 -47 -158 0
-87 37 -158 105 -200 45 -28 55 -30 145 -30 94 0 99 1 147 34 72 49 107 109
111 192 5 82 -8 123 -55 179 -60 70 -171 102 -263 77z m149 -63 c53 -47 76
-109 76 -204 -1 -125 -53 -190 -151 -190 -86 0 -140 57 -164 172 -6 32 -8 78
-5 105 16 107 61 153 152 153 47 0 58 -4 92 -36z"/>
<path d="M3303 2382 c-100 -3 -130 -13 -78 -26 l25 -6 -2 -208 c-3 -206 -3
-207 -25 -210 -13 -2 -23 -9 -23 -15 0 -8 30 -12 100 -12 67 0 100 4 100 11 0
6 -13 14 -30 18 l-30 6 0 90 0 90 28 0 c23 0 33 -11 76 -83 75 -129 73 -128
144 -134 43 -4 62 -2 62 6 0 6 -4 11 -9 11 -17 0 -70 64 -121 145 l-49 80 30
13 c59 25 89 119 53 170 -33 48 -83 59 -251 54z m144 -52 c49 -45 37 -137 -21
-164 -19 -9 -46 -16 -60 -16 l-26 0 0 100 0 100 43 0 c29 0 50 -6 64 -20z"/>
<path d="M4653 2370 c-3 -11 -30 -80 -60 -153 -30 -73 -66 -163 -80 -201 -22
-58 -31 -70 -61 -83 -19 -8 -33 -16 -30 -18 2 -2 39 -5 83 -6 80 -2 114 13 55
25 -34 6 -34 7 -3 94 l16 42 82 0 83 0 21 -61 c22 -66 21 -79 -9 -79 -18 0
-40 -20 -23 -20 98 -4 198 -1 200 6 2 5 -9 14 -24 20 -25 9 -37 33 -101 197
-41 103 -79 202 -85 222 -8 27 -16 35 -35 35 -16 0 -26 -7 -29 -20z m37 -170
c12 -36 25 -71 27 -77 4 -10 -12 -13 -62 -13 -60 0 -66 2 -60 18 42 112 60
151 65 145 4 -5 17 -37 30 -73z"/>
<path d="M4970 2373 c0 -7 9 -13 19 -13 11 0 29 -12 40 -26 19 -24 21 -40 21
-164 0 -75 -3 -158 -6 -184 -6 -42 -10 -48 -36 -53 -54 -11 -22 -25 57 -25 84
0 106 12 53 27 l-33 10 -3 163 c-1 92 1 162 6 160 5 -1 69 -75 143 -163 179
-215 170 -205 191 -205 17 0 18 14 18 218 0 226 3 242 42 242 10 0 18 6 18 13
0 8 -23 12 -80 12 -57 0 -80 -4 -80 -12 0 -7 8 -13 19 -13 37 0 42 -22 39
-171 l-3 -142 -90 104 c-49 57 -102 118 -116 134 -14 17 -40 45 -56 64 -27 32
-33 34 -96 35 -49 1 -67 -2 -67 -11z"/>
<path d="M6733 2377 c-3 -5 -3 -9 -2 -10 46 -24 44 -13 47 -217 3 -200 -1
-220 -39 -220 -18 0 -28 -20 -11 -20 136 -6 192 -4 192 7 0 6 -10 13 -22 15
-22 3 -23 9 -28 96 -3 52 -3 96 -1 98 2 2 58 4 123 4 l118 0 -1 -72 c-1 -95
-9 -122 -37 -126 -12 -2 -22 -9 -22 -17 0 -17 192 -15 198 3 2 7 -5 12 -16 12
-39 0 -43 19 -40 221 3 191 3 194 26 205 13 6 23 15 23 19 -1 4 -44 8 -96 9
-70 1 -95 -2 -95 -11 0 -7 9 -13 20 -13 28 0 40 -37 40 -121 l0 -69 -120 0
-121 0 3 93 c3 88 4 92 26 95 13 2 22 8 20 14 -4 12 -178 17 -185 5z"/>
<path d="M8534 2381 c-10 -10 -2 -20 19 -23 22 -3 22 -4 25 -210 l2 -208 -25
-6 c-14 -3 -25 -10 -25 -15 0 -6 77 -8 182 -7 l182 3 12 58 c14 70 2 82 -26
28 -11 -22 -29 -45 -39 -51 -23 -12 -140 -13 -159 -2 -9 7 -12 55 -10 207 3
199 3 199 26 205 13 3 24 9 25 15 2 9 -180 15 -189 6z"/>
<path d="M2080 2370 c0 -5 9 -10 20 -10 37 0 41 -29 29 -212 -13 -192 -19
-218 -49 -218 -11 0 -20 -4 -20 -10 0 -6 30 -10 70 -10 39 0 73 0 77 -1 4 0 9
4 11 9 1 5 -11 12 -28 15 -30 6 -30 7 -30 74 0 38 3 112 7 166 l6 97 19 -41
c10 -23 18 -45 18 -50 0 -5 11 -32 25 -61 13 -29 37 -87 53 -128 38 -96 53
-100 88 -23 68 152 102 231 114 263 26 70 30 52 28 -120 -3 -173 -3 -175 -25
-178 -13 -2 -23 -9 -23 -15 0 -16 193 -13 198 2 2 6 -6 11 -17 11 -11 0 -24 8
-29 18 -5 9 -13 99 -17 200 -7 192 -4 212 36 212 11 0 19 5 19 10 0 7 -27 10
-71 8 l-72 -3 -71 -167 c-39 -92 -74 -168 -77 -168 -6 0 -106 226 -138 313
-10 26 -13 27 -81 27 -40 0 -70 -4 -70 -10z"/>
<path d="M2740 2374 c0 -3 14 -10 30 -15 l30 -11 0 -204 0 -204 -30 -7 c-32
-6 -37 -29 -7 -27 10 0 93 1 187 2 l169 2 7 48 c8 61 7 66 -4 70 -6 2 -15 -13
-22 -33 -16 -48 -37 -56 -128 -53 l-77 3 -3 99 -3 98 58 -5 c32 -4 64 -6 71
-7 6 0 12 -11 12 -25 0 -15 6 -25 15 -25 11 0 14 15 12 75 -1 52 -6 75 -14 75
-7 0 -13 -8 -13 -18 0 -31 -22 -42 -82 -42 l-58 0 0 90 0 90 79 0 c81 0 95 -6
102 -44 2 -11 10 -21 17 -24 8 -2 12 11 12 47 l0 51 -180 0 c-99 0 -180 -2
-180 -6z"/>
<path d="M3686 2371 c5 -5 18 -11 29 -13 19 -3 20 -12 23 -211 l2 -207 -30 -6
c-59 -12 -29 -24 60 -24 50 0 93 0 97 -1 20 -2 11 20 -9 23 l-23 3 0 210 0
210 23 3 c12 2 22 8 22 13 0 5 -46 9 -102 9 -61 0 -98 -4 -92 -9z"/>
</g>
</svg>
